HIERARCHY
ROOT Hips
{
    OFFSET 0.000000 0.000000 0.000000
    CHANNELS 6 Xposition Yposition Zposition Zrotation Xrotation Yrotation
    JOINT Spine
    {
        OFFSET -0.000000 14.517291 0.000000
        CHANNELS 3 Zrotation Xrotation Yrotation
        JOINT Spine1
        {
            OFFSET -0.000000 37.558300 0.000000
            CHANNELS 3 Zrotation Xrotation Yrotation
            JOINT Neck
            {
                OFFSET -0.000000 37.404057 3.400369
                CHANNELS 3 Zrotation Xrotation Yrotation
                JOINT Head
                {
                    OFFSET -0.000000 24.785618 -3.540803
                    CHANNELS 3 Zrotation Xrotation Yrotation
                    End Site
                    {
                        OFFSET -0.000000 35.408028 0.000000
                    }
                }
            }
            JOINT LeftShoulder
            {
                OFFSET 6.992933 33.973492 -0.192664
                CHANNELS 3 Zrotation Xrotation Yrotation
                JOINT LeftArm
                {
                    OFFSET 21.527611 0.000000 0.000000
                    CHANNELS 3 Zrotation Xrotation Yrotation
                    JOINT LeftForeArm
                    {
                        OFFSET 56.353916 0.000000 0.000000
                        CHANNELS 3 Zrotation Xrotation Yrotation
                        JOINT LeftHand
                        {
                            OFFSET 47.774071 0.000000 0.000000
                            CHANNELS 3 Zrotation Xrotation Yrotation
                            End Site
                            {
                                OFFSET 26.556021 0.000000 0.000000
                            }
                        }
                    }
                }
            }
            JOINT RightShoulder
            {
                OFFSET -7.065357 33.973492 -0.192664
                CHANNELS 3 Zrotation Xrotation Yrotation
                JOINT RightArm
                {
                    OFFSET -21.527611 0.000000 0.000000
                    CHANNELS 3 Zrotation Xrotation Yrotation
                    JOINT RightForeArm
                    {
                        OFFSET -56.353916 0.000000 0.000000
                        CHANNELS 3 Zrotation Xrotation Yrotation
                        JOINT RightHand
                        {
                            OFFSET -47.774071 0.000000 0.000000
                            CHANNELS 3 Zrotation Xrotation Yrotation
                            End Site
                            {
                                OFFSET -26.556021 0.000000 0.000000
                            }
                        }
                    }
                }
            }
        }
    }
    JOINT LeftUpLeg
    {
        OFFSET 17.704014 0.000000 0.000000
        CHANNELS 3 Zrotation Xrotation Yrotation
        JOINT LeftLeg
        {
            OFFSET -0.000000 -81.181816 0.000000
            CHANNELS 3 Zrotation Xrotation Yrotation
            JOINT LeftFoot
            {
                OFFSET -0.000000 -62.821102 0.000000
                CHANNELS 3 Zrotation Xrotation Yrotation
                JOINT LeftToeBase
                {
                    OFFSET -0.000000 -11.507608 26.556021
                    CHANNELS 3 Zrotation Xrotation Yrotation
                    End Site
                    {
                        OFFSET -0.000000 0.000000 7.081605
                    }
                }
            }
        }
    }
    JOINT RightUpLeg
    {
        OFFSET -17.704014 0.000000 0.000000
        CHANNELS 3 Zrotation Xrotation Yrotation
        JOINT RightLeg
        {
            OFFSET -0.000000 -81.181816 0.000000
            CHANNELS 3 Zrotation Xrotation Yrotation
            JOINT RightFoot
            {
                OFFSET -0.000000 -62.821102 0.000000
                CHANNELS 3 Zrotation Xrotation Yrotation
                JOINT RightToeBase
                {
                    OFFSET -0.000000 -11.507608 26.556021
                    CHANNELS 3 Zrotation Xrotation Yrotation
                    End Site
                    {
                        OFFSET -0.000000 0.000000 7.081605
                    }
                }
            }
        }
    }
}
MOTION
Frames:    12
Frame Time:    0.008333
31.997183    143.872314    49.119194    2.581833    1.982207    -63.429607    -4.507583    2.090437    -7.226311    4.748023    2.319883    -2.535267    27.044872    6.987198    23.022087    -22.833527    7.457013    19.995893    20.291611    1.057244    -30.513048    -11.677728    -14.518326    -66.174316    3.387124    -0.391170    -81.084747    0.708621    2.332340    -27.679731    -3.514790    -4.354853    -7.367233    28.883564    -25.950413    44.691093    13.251073    -27.824270    110.686836    29.413448    -35.300270    38.905701    38.231792    -22.514969    32.700104    -34.511440    45.320496    8.087450    3.718573    -14.782252    44.064281    0.000000    0.000000    0.000000    -31.505566    -15.188855    -15.624569    3.843291    34.870396    -5.844015    19.775312    -9.837667    6.720493    0.000000    0.000000    0.000000    
31.999561    143.862366    49.092052    2.575224    1.977252    -63.430889    -4.520140    2.097670    -7.235119    4.787529    2.324736    -2.539395    27.014101    6.954638    23.007511    -22.832754    7.471195    19.977907    20.270855    1.069631    -30.510677    -11.664146    -14.540994    -66.120918    3.275927    -0.334361    -81.015053    0.706476    2.292465    -27.495928    -3.550197    -4.359123    -7.381193    28.870253    -25.933220    44.688248    13.245180    -27.836306    110.681648    29.444933    -35.288849    38.922115    38.239166    -22.511101    32.679516    -34.524658    45.312447    8.082941    3.719787    -14.772280    44.079281    0.000000    0.000000    0.000000    -31.493540    -15.200730    -15.594426    3.833908    34.900272    -5.807250    19.793905    -9.896872    6.695342    0.000000    0.000000    0.000000    
32.003193    143.847870    49.069679    2.569934    1.967222    -63.431252    -4.523263    2.107645    -7.242334    4.795865    2.321981    -2.542002    27.013313    6.926645    22.989044    -22.849092    7.490228    19.953983    20.259901    1.069377    -30.515442    -11.670490    -14.562920    -66.064163    3.180383    -0.234194    -80.940491    0.758296    2.295700    -27.346025    -3.570928    -4.347974    -7.383495    28.872856    -25.951365    44.677074    13.252880    -27.807812    110.689575    29.429995    -35.282726    38.907223    38.242489    -22.509512    32.665493    -34.539856    45.317059    8.077753    3.712666    -14.778757    44.088993    0.000000    0.000000    0.000000    -31.490704    -15.217584    -15.583570    3.820727    34.943447    -5.805465    19.787897    -9.940139    6.710768    0.000000    0.000000    0.000000    
32.008698    143.833099    49.046585    2.568859    1.962804    -63.433147    -4.521059    2.108460    -7.245049    4.793573    2.329968    -2.543183    27.011475    6.900467    22.974070    -22.850018    7.489479    19.931368    20.263163    1.074810    -30.496645    -11.679724    -14.597657    -66.030708    3.098552    -0.121426    -80.863213    0.798220    2.326364    -27.180981    -3.583122    -4.366679    -7.390449    28.852434    -25.939249    44.644951    13.248353    -27.801353    110.689690    29.453783    -35.266064    38.898201    38.253513    -22.512260    32.664375    -34.553761    45.328365    8.047884    3.730559    -14.773478    44.122414    0.000000    0.000000    0.000000    -31.487160    -15.240062    -15.572460    3.821545    34.986908    -5.795671    19.788996    -9.994343    6.683985    0.000000    0.000000    0.000000    
32.012833    143.814560    49.027454    2.565167    1.958351    -63.427811    -4.513364    2.109076    -7.250362    4.788085    2.336439    -2.545098    27.002970    6.886109    22.954525    -22.847237    7.473889    19.904827    20.256216    1.077039    -30.493509    -11.661875    -14.592944    -65.970543    3.038830    -0.063673    -80.748184    0.697518    2.352899    -27.066385    -3.597521    -4.354597    -7.400081    28.847563    -25.954714    44.621265    13.251948    -27.765667    110.701378    29.427818    -35.251579    38.887897    38.262173    -22.515720    32.665585    -34.566280    45.326405    8.069258    3.738471    -14.773878    44.116737    0.000000    0.000000    0.000000    -31.489166    -15.251986    -15.571924    3.810310    35.023445    -5.768695    19.785147    -10.036637    6.691486    0.000000    0.000000    0.000000    
32.016247    143.796204    49.009644    2.555581    1.949517    -63.415836    -4.512153    2.122858    -7.260246    4.796019    2.334699    -2.548636    26.982746    6.908913    22.930241    -22.855246    7.402329    19.871626    20.237808    1.087390    -30.487867    -11.655441    -14.605773    -65.900719    3.010050    0.030161    -80.632027    0.687533    2.419273    -27.130573    -3.620316    -4.356839    -7.396203    28.828995    -25.956415    44.573002    13.263722    -27.737522    110.722969    29.453480    -35.234001    38.907463    38.267273    -22.522770    32.668758    -34.574909    45.351540    8.078804    3.755019    -14.767849    44.112244    0.000000    0.000000    0.000000    -31.495420    -15.255442    -15.576115    3.807611    35.070839    -5.752011    19.795597    -10.080070    6.695132    0.000000    0.000000    0.000000    
32.023087    143.777252    48.996353    2.552189    1.940992    -63.407501    -4.500409    2.123310    -7.265041    4.774478    2.348832    -2.550327    26.958668    6.910382    22.908453    -22.818636    7.337763    19.840637    20.248661    1.089608    -30.473389    -11.646223    -14.609650    -65.832283    2.987393    0.093577    -80.521339    0.720853    2.449555    -27.240910    -3.630622    -4.367211    -7.401758    28.812847    -25.940121    44.530304    13.262142    -27.725018    110.747963    29.465591    -35.227493    38.894749    38.270477    -22.530508    32.669548    -34.583019    45.363403    8.096248    3.744370    -14.778103    44.099201    0.000000    0.000000    0.000000    -31.511881    -15.263357    -15.563417    3.829529    35.111488    -5.766228    19.795166    -10.122832    6.704498    0.000000    0.000000    0.000000    
32.027157    143.756348    48.984482    2.549620    1.933963    -63.398418    -4.491310    2.129545    -7.266531    4.763180    2.344172    -2.550389    26.953703    6.934331    22.892433    -22.818918    7.275554    19.817490    20.246622    1.103238    -30.468199    -11.628336    -14.607097    -65.751534    2.920132    0.136817    -80.452522    0.741710    2.427505    -27.281399    -3.643066    -4.362059    -7.410478    28.799187    -25.940882    44.489319    13.271210    -27.689884    110.768036    29.436123    -35.220772    38.897072    38.279163    -22.536966    32.681610    -34.589039    45.384773    8.088385    3.733765    -14.790987    44.097492    0.000000    0.000000    0.000000    -31.528635    -15.272006    -15.567049    3.836425    35.155537    -5.757001    19.806677    -10.151341    6.719206    0.000000    0.000000    0.000000    
32.029308    143.737473    48.975159    2.544898    1.924813    -63.388168    -4.485530    2.127722    -7.271808    4.747018    2.360729    -2.552447    26.930479    6.932467    22.879345    -22.772755    7.226318    19.798729    20.247726    1.107902    -30.446363    -11.623222    -14.625638    -65.693375    2.769089    0.270857    -80.391052    0.966969    2.377236    -27.217560    -3.643330    -4.371792    -7.413322    28.779711    -25.935564    44.445137    13.281907    -27.660004    110.784897    29.457291    -35.203678    38.902374    38.280834    -22.540520    32.688053    -34.601837    45.397144    8.109429    3.742977    -14.790918    44.069973    0.000000    0.000000    0.000000    -31.546282    -15.274974    -15.568441    3.841429    35.193920    -5.789830    19.820732    -10.165148    6.786600    0.000000    0.000000    0.000000    
32.034843    143.720490    48.965618    2.541778    1.923333    -63.386253    -4.467595    2.138227    -7.266816    4.732893    2.347322    -2.549967    26.911333    6.936934    22.863096    -22.739244    7.195833    19.780733    20.227072    1.114751    -30.420746    -11.625400    -14.642056    -65.627083    2.793133    0.374265    -80.318489    0.873645    2.520180    -27.260534    -3.659815    -4.362344    -7.427504    28.788357    -25.944939    44.414219    13.290817    -27.600937    110.802925    29.453011    -35.167900    38.898335    38.295868    -22.545826    32.701324    -34.623699    45.411106    8.138279    3.758602    -14.787360    44.057259    0.000000    0.000000    0.000000    -31.553225    -15.292900    -15.559483    3.845199    35.237038    -5.777622    19.842869    -10.186278    6.764905    0.000000    0.000000    0.000000    
32.038921    143.701630    48.961975    2.543065    1.919275    -63.380386    -4.457869    2.135983    -7.265873    4.725331    2.347030    -2.549374    26.888174    6.931939    22.847370    -22.700199    7.179592    19.764551    20.204052    1.122773    -30.399727    -11.602461    -14.640901    -65.549454    2.728914    0.450077    -80.273659    0.872958    2.540174    -27.218590    -3.673632    -4.368993    -7.428469    28.779095    -25.946671    44.361961    13.303348    -27.543516    110.820038    29.426037    -35.143734    38.898838    38.301090    -22.554186    32.719818    -34.635628    45.423790    8.168002    3.775533    -14.782629    44.041790    0.000000    0.000000    0.000000    -31.572618    -15.302998    -15.569959    3.857810    35.274902    -5.754926    19.844662    -10.215539    6.759156    0.000000    0.000000    0.000000    
32.040070    143.685394    48.958183    2.537163    1.915802    -63.371441    -4.449540    2.143974    -7.258031    4.721756    2.340334    -2.546472    26.875254    6.934985    22.832460    -22.671740    7.159719    19.748791    20.187757    1.135853    -30.377588    -11.599667    -14.667415    -65.501045    2.539425    0.583346    -80.216789    1.035085    2.471961    -27.238792    -3.680112    -4.375885    -7.434078    28.749300    -25.937565    44.299149    13.304827    -27.520041    110.836357    29.413589    -35.139767    38.869381    38.308880    -22.557884    32.728645    -34.636906    45.438057    8.165912    3.776577    -14.790050    44.027275    0.000000    0.000000    0.000000    -31.584593    -15.302110    -15.560094    3.876009    35.301369    -5.768302    19.847929    -10.237812    6.758904    0.000000    0.000000    0.000000    
